<mxfile host="app.diagrams.net" modified="2021-07-01T07:43:46.230Z" agent="5.0 (Windows NT 10.0; Win64; x64) AppleWebKit/537.36 (KHTML, like Gecko) Chrome/91.0.4472.124 Safari/537.36" etag="tjAfa0Dy3-GMMSlBg1sz" version="14.8.3" type="github">
  <diagram id="kgpKYQtTHZ0yAKxKKP6v" name="Page-1">
    <mxGraphModel dx="868" dy="450" grid="1" gridSize="10" guides="1" tooltips="1" connect="1" arrows="1" fold="1" page="1" pageScale="1" pageWidth="850" pageHeight="1100" math="0" shadow="0">
      <root>
        <mxCell id="0" />
        <mxCell id="1" parent="0" />
        <mxCell id="3nuBFxr9cyL0pnOWT2aG-1" value="Auto Train Brain satın al" style="shape=table;childLayout=tableLayout;rowLines=0;columnLines=0;startSize=40;html=1;whiteSpace=wrap;collapsible=0;recursiveResize=0;expand=0;fontStyle=1" parent="1" vertex="1">
          <mxGeometry x="100" y="80" width="670" height="300" as="geometry" />
        </mxCell>
        <mxCell id="3nuBFxr9cyL0pnOWT2aG-2" value="" style="edgeStyle=orthogonalEdgeStyle;rounded=0;orthogonalLoop=1;jettySize=auto;html=1;" parent="3nuBFxr9cyL0pnOWT2aG-1" source="3nuBFxr9cyL0pnOWT2aG-7" target="3nuBFxr9cyL0pnOWT2aG-17" edge="1">
          <mxGeometry relative="1" as="geometry" />
        </mxCell>
        <mxCell id="3nuBFxr9cyL0pnOWT2aG-3" value="Customer" style="swimlane;horizontal=0;points=[[0,0.5],[1,0.5]];portConstraint=eastwest;startSize=40;html=1;whiteSpace=wrap;collapsible=0;recursiveResize=0;expand=0;" parent="3nuBFxr9cyL0pnOWT2aG-1" vertex="1">
          <mxGeometry y="40" width="670" height="180" as="geometry" />
        </mxCell>
        <mxCell id="3nuBFxr9cyL0pnOWT2aG-4" value="Eğitim ihtiyacı&lt;br&gt;" style="swimlane;connectable=0;startSize=40;html=1;whiteSpace=wrap;collapsible=0;recursiveResize=0;expand=0;" parent="3nuBFxr9cyL0pnOWT2aG-3" vertex="1">
          <mxGeometry x="40" width="130" height="180" as="geometry" />
        </mxCell>
        <mxCell id="3nuBFxr9cyL0pnOWT2aG-5" style="edgeStyle=orthogonalEdgeStyle;rounded=0;orthogonalLoop=1;jettySize=auto;html=1;" parent="3nuBFxr9cyL0pnOWT2aG-4" source="3nuBFxr9cyL0pnOWT2aG-6" target="3nuBFxr9cyL0pnOWT2aG-7" edge="1">
          <mxGeometry relative="1" as="geometry" />
        </mxCell>
        <mxCell id="3nuBFxr9cyL0pnOWT2aG-6" value="Başla" style="rounded=1;whiteSpace=wrap;html=1;arcSize=50;" parent="3nuBFxr9cyL0pnOWT2aG-4" vertex="1">
          <mxGeometry x="20" y="60" width="90" height="40" as="geometry" />
        </mxCell>
        <mxCell id="3nuBFxr9cyL0pnOWT2aG-7" value="Auto Train Brain&#39;i ara" style="rounded=0;whiteSpace=wrap;html=1;" parent="3nuBFxr9cyL0pnOWT2aG-4" vertex="1">
          <mxGeometry x="20" y="120" width="90" height="40" as="geometry" />
        </mxCell>
        <mxCell id="LBsu3LIFrgV_N46bmwVq-23" value="" style="rounded=0;whiteSpace=wrap;html=1;" vertex="1" parent="3nuBFxr9cyL0pnOWT2aG-4">
          <mxGeometry x="-40" width="40" height="180" as="geometry" />
        </mxCell>
        <mxCell id="3nuBFxr9cyL0pnOWT2aG-8" value="Make transaction" style="swimlane;connectable=0;startSize=40;html=1;whiteSpace=wrap;collapsible=0;recursiveResize=0;expand=0;" parent="3nuBFxr9cyL0pnOWT2aG-3" vertex="1">
          <mxGeometry x="170" width="370" height="180" as="geometry" />
        </mxCell>
        <mxCell id="3nuBFxr9cyL0pnOWT2aG-9" value="ATB iste" style="rounded=0;whiteSpace=wrap;html=1;" parent="3nuBFxr9cyL0pnOWT2aG-8" vertex="1">
          <mxGeometry x="20" y="120" width="90" height="40" as="geometry" />
        </mxCell>
        <mxCell id="3nuBFxr9cyL0pnOWT2aG-10" value="ATB satın al" style="rounded=0;whiteSpace=wrap;html=1;" parent="3nuBFxr9cyL0pnOWT2aG-8" vertex="1">
          <mxGeometry x="150" y="120" width="90" height="40" as="geometry" />
        </mxCell>
        <mxCell id="LBsu3LIFrgV_N46bmwVq-10" value="email1" style="rounded=0;whiteSpace=wrap;html=1;" vertex="1" parent="3nuBFxr9cyL0pnOWT2aG-8">
          <mxGeometry x="260" y="50" width="90" height="40" as="geometry" />
        </mxCell>
        <mxCell id="LBsu3LIFrgV_N46bmwVq-12" value="email2" style="rounded=0;whiteSpace=wrap;html=1;" vertex="1" parent="3nuBFxr9cyL0pnOWT2aG-8">
          <mxGeometry x="260" y="110" width="90" height="40" as="geometry" />
        </mxCell>
        <mxCell id="3nuBFxr9cyL0pnOWT2aG-11" value="Feel perky" style="swimlane;connectable=0;startSize=40;html=1;whiteSpace=wrap;collapsible=0;recursiveResize=0;expand=0;" parent="3nuBFxr9cyL0pnOWT2aG-3" vertex="1">
          <mxGeometry x="540" width="130" height="180" as="geometry" />
        </mxCell>
        <mxCell id="3nuBFxr9cyL0pnOWT2aG-12" style="edgeStyle=orthogonalEdgeStyle;rounded=0;orthogonalLoop=1;jettySize=auto;html=1;" parent="3nuBFxr9cyL0pnOWT2aG-11" source="3nuBFxr9cyL0pnOWT2aG-13" target="3nuBFxr9cyL0pnOWT2aG-14" edge="1">
          <mxGeometry relative="1" as="geometry" />
        </mxCell>
        <mxCell id="3nuBFxr9cyL0pnOWT2aG-13" value="Kurulum yap" style="rounded=0;whiteSpace=wrap;html=1;" parent="3nuBFxr9cyL0pnOWT2aG-11" vertex="1">
          <mxGeometry x="20" y="60" width="90" height="40" as="geometry" />
        </mxCell>
        <mxCell id="3nuBFxr9cyL0pnOWT2aG-14" value="Bitti" style="rounded=1;whiteSpace=wrap;html=1;arcSize=50;" parent="3nuBFxr9cyL0pnOWT2aG-11" vertex="1">
          <mxGeometry x="20" y="120" width="90" height="40" as="geometry" />
        </mxCell>
        <mxCell id="3nuBFxr9cyL0pnOWT2aG-15" value="" style="swimlane;horizontal=0;points=[[0,0.5],[1,0.5]];portConstraint=eastwest;startSize=40;html=1;whiteSpace=wrap;collapsible=0;recursiveResize=0;expand=0;" parent="3nuBFxr9cyL0pnOWT2aG-1" vertex="1">
          <mxGeometry y="220" width="670" height="80" as="geometry" />
        </mxCell>
        <mxCell id="3nuBFxr9cyL0pnOWT2aG-16" value="" style="swimlane;connectable=0;startSize=0;html=1;whiteSpace=wrap;collapsible=0;recursiveResize=0;expand=0;" parent="3nuBFxr9cyL0pnOWT2aG-15" vertex="1">
          <mxGeometry x="40" width="130" height="80" as="geometry" />
        </mxCell>
        <mxCell id="3nuBFxr9cyL0pnOWT2aG-17" value="Müşteri ile diyalog" style="rounded=0;whiteSpace=wrap;html=1;" parent="3nuBFxr9cyL0pnOWT2aG-16" vertex="1">
          <mxGeometry x="20" y="20" width="90" height="40" as="geometry" />
        </mxCell>
        <mxCell id="3nuBFxr9cyL0pnOWT2aG-18" value="" style="swimlane;connectable=0;startSize=0;html=1;whiteSpace=wrap;collapsible=0;recursiveResize=0;expand=0;" parent="3nuBFxr9cyL0pnOWT2aG-15" vertex="1">
          <mxGeometry x="170" width="370" height="80" as="geometry" />
        </mxCell>
        <mxCell id="3nuBFxr9cyL0pnOWT2aG-19" value="" style="edgeStyle=orthogonalEdgeStyle;rounded=0;orthogonalLoop=1;jettySize=auto;html=1;" parent="3nuBFxr9cyL0pnOWT2aG-18" source="3nuBFxr9cyL0pnOWT2aG-20" target="3nuBFxr9cyL0pnOWT2aG-22" edge="1">
          <mxGeometry relative="1" as="geometry" />
        </mxCell>
        <mxCell id="3nuBFxr9cyL0pnOWT2aG-20" value="Ödeme al" style="rounded=0;whiteSpace=wrap;html=1;" parent="3nuBFxr9cyL0pnOWT2aG-18" vertex="1">
          <mxGeometry x="150" y="20" width="90" height="40" as="geometry" />
        </mxCell>
        <mxCell id="3nuBFxr9cyL0pnOWT2aG-21" value="Web sitesine yönlendir" style="shape=document;whiteSpace=wrap;html=1;boundedLbl=1;" parent="3nuBFxr9cyL0pnOWT2aG-18" vertex="1">
          <mxGeometry x="20" y="10" width="90" height="60" as="geometry" />
        </mxCell>
        <mxCell id="3nuBFxr9cyL0pnOWT2aG-22" value="Ödemeyi onayla" style="shape=process;whiteSpace=wrap;html=1;backgroundOutline=1;" parent="3nuBFxr9cyL0pnOWT2aG-18" vertex="1">
          <mxGeometry x="260" y="20" width="90" height="40" as="geometry" />
        </mxCell>
        <mxCell id="3nuBFxr9cyL0pnOWT2aG-23" value="" style="swimlane;connectable=0;startSize=0;html=1;whiteSpace=wrap;collapsible=0;recursiveResize=0;expand=0;" parent="3nuBFxr9cyL0pnOWT2aG-15" vertex="1">
          <mxGeometry x="540" width="130" height="80" as="geometry" />
        </mxCell>
        <mxCell id="3nuBFxr9cyL0pnOWT2aG-24" value="" style="edgeStyle=orthogonalEdgeStyle;rounded=0;orthogonalLoop=1;jettySize=auto;html=1;" parent="3nuBFxr9cyL0pnOWT2aG-1" source="3nuBFxr9cyL0pnOWT2aG-17" target="3nuBFxr9cyL0pnOWT2aG-9" edge="1">
          <mxGeometry relative="1" as="geometry">
            <Array as="points">
              <mxPoint x="160" y="260" />
              <mxPoint x="160" y="180" />
            </Array>
          </mxGeometry>
        </mxCell>
        <mxCell id="3nuBFxr9cyL0pnOWT2aG-25" value="" style="edgeStyle=orthogonalEdgeStyle;rounded=0;orthogonalLoop=1;jettySize=auto;html=1;" parent="3nuBFxr9cyL0pnOWT2aG-1" source="3nuBFxr9cyL0pnOWT2aG-9" target="3nuBFxr9cyL0pnOWT2aG-21" edge="1">
          <mxGeometry relative="1" as="geometry" />
        </mxCell>
        <mxCell id="3nuBFxr9cyL0pnOWT2aG-26" value="" style="edgeStyle=orthogonalEdgeStyle;rounded=0;orthogonalLoop=1;jettySize=auto;html=1;" parent="3nuBFxr9cyL0pnOWT2aG-1" source="3nuBFxr9cyL0pnOWT2aG-21" target="3nuBFxr9cyL0pnOWT2aG-10" edge="1">
          <mxGeometry relative="1" as="geometry">
            <Array as="points">
              <mxPoint x="300" y="260" />
              <mxPoint x="300" y="180" />
            </Array>
          </mxGeometry>
        </mxCell>
        <mxCell id="3nuBFxr9cyL0pnOWT2aG-27" value="" style="edgeStyle=orthogonalEdgeStyle;rounded=0;orthogonalLoop=1;jettySize=auto;html=1;" parent="3nuBFxr9cyL0pnOWT2aG-1" source="3nuBFxr9cyL0pnOWT2aG-10" target="3nuBFxr9cyL0pnOWT2aG-20" edge="1">
          <mxGeometry relative="1" as="geometry" />
        </mxCell>
        <mxCell id="LBsu3LIFrgV_N46bmwVq-15" style="edgeStyle=orthogonalEdgeStyle;rounded=0;orthogonalLoop=1;jettySize=auto;html=1;exitX=0.5;exitY=0;exitDx=0;exitDy=0;entryX=0.5;entryY=1;entryDx=0;entryDy=0;" edge="1" parent="3nuBFxr9cyL0pnOWT2aG-1" source="3nuBFxr9cyL0pnOWT2aG-22" target="LBsu3LIFrgV_N46bmwVq-12">
          <mxGeometry relative="1" as="geometry" />
        </mxCell>
        <mxCell id="LBsu3LIFrgV_N46bmwVq-1" value="Actor" style="shape=umlActor;verticalLabelPosition=bottom;verticalAlign=top;html=1;outlineConnect=0;" vertex="1" parent="1">
          <mxGeometry x="105" y="140" width="30" height="60" as="geometry" />
        </mxCell>
        <mxCell id="LBsu3LIFrgV_N46bmwVq-2" value="CC&lt;br&gt;" style="rounded=0;whiteSpace=wrap;html=1;" vertex="1" parent="1">
          <mxGeometry x="100" y="370" width="40" height="90" as="geometry" />
        </mxCell>
        <mxCell id="LBsu3LIFrgV_N46bmwVq-5" value="" style="rounded=0;whiteSpace=wrap;html=1;" vertex="1" parent="1">
          <mxGeometry x="140" y="370" width="130" height="90" as="geometry" />
        </mxCell>
        <mxCell id="LBsu3LIFrgV_N46bmwVq-6" value="" style="rounded=0;whiteSpace=wrap;html=1;" vertex="1" parent="1">
          <mxGeometry x="270" y="370" width="370" height="90" as="geometry" />
        </mxCell>
        <mxCell id="LBsu3LIFrgV_N46bmwVq-7" value="" style="rounded=0;whiteSpace=wrap;html=1;" vertex="1" parent="1">
          <mxGeometry x="640" y="370" width="130" height="90" as="geometry" />
        </mxCell>
        <mxCell id="LBsu3LIFrgV_N46bmwVq-17" value="Kurulum/kullanım&lt;br&gt;desteği" style="rounded=0;whiteSpace=wrap;html=1;" vertex="1" parent="1">
          <mxGeometry x="657.5" y="380" width="95" height="40" as="geometry" />
        </mxCell>
        <mxCell id="LBsu3LIFrgV_N46bmwVq-20" value="" style="endArrow=classic;html=1;entryX=0.363;entryY=-0.125;entryDx=0;entryDy=0;entryPerimeter=0;" edge="1" parent="1" target="LBsu3LIFrgV_N46bmwVq-17">
          <mxGeometry width="50" height="50" relative="1" as="geometry">
            <mxPoint x="690" y="220" as="sourcePoint" />
            <mxPoint x="740" y="170" as="targetPoint" />
          </mxGeometry>
        </mxCell>
        <mxCell id="LBsu3LIFrgV_N46bmwVq-21" value="" style="endArrow=classic;html=1;entryX=0.689;entryY=1.075;entryDx=0;entryDy=0;entryPerimeter=0;" edge="1" parent="1" target="3nuBFxr9cyL0pnOWT2aG-14">
          <mxGeometry width="50" height="50" relative="1" as="geometry">
            <mxPoint x="720" y="370" as="sourcePoint" />
            <mxPoint x="770" y="320" as="targetPoint" />
          </mxGeometry>
        </mxCell>
        <mxCell id="LBsu3LIFrgV_N46bmwVq-22" value="Satış" style="rounded=0;whiteSpace=wrap;html=1;" vertex="1" parent="1">
          <mxGeometry x="100" y="300" width="40" height="70" as="geometry" />
        </mxCell>
        <mxCell id="LBsu3LIFrgV_N46bmwVq-24" value="" style="endArrow=classic;html=1;" edge="1" parent="1" target="LBsu3LIFrgV_N46bmwVq-10">
          <mxGeometry width="50" height="50" relative="1" as="geometry">
            <mxPoint x="490" y="320" as="sourcePoint" />
            <mxPoint x="540" y="270" as="targetPoint" />
          </mxGeometry>
        </mxCell>
        <mxCell id="LBsu3LIFrgV_N46bmwVq-25" value="" style="endArrow=classic;html=1;" edge="1" parent="1">
          <mxGeometry width="50" height="50" relative="1" as="geometry">
            <mxPoint x="620" y="240" as="sourcePoint" />
            <mxPoint x="657.5" y="200" as="targetPoint" />
          </mxGeometry>
        </mxCell>
        <mxCell id="LBsu3LIFrgV_N46bmwVq-26" value="Kullanıcı yarat" style="rounded=0;whiteSpace=wrap;html=1;" vertex="1" parent="1">
          <mxGeometry x="657.5" y="430" width="90" height="30" as="geometry" />
        </mxCell>
        <mxCell id="LBsu3LIFrgV_N46bmwVq-27" value="" style="endArrow=classic;html=1;" edge="1" parent="1">
          <mxGeometry width="50" height="50" relative="1" as="geometry">
            <mxPoint x="697.5" y="420" as="sourcePoint" />
            <mxPoint x="698" y="430" as="targetPoint" />
          </mxGeometry>
        </mxCell>
      </root>
    </mxGraphModel>
  </diagram>
</mxfile>
